<svg width="500" height="130.336" xmlns="http://www.w3.org/2000/svg">

 <g>
  <title>Layer 1</title>
  <path fill="#4a5fc1" d="m171.119,130.336a47.731,47.731 0 0 1 -12.364,-1.81l9.1,0l0,-9.807l-9.321,0l-18.235,-29.47l0.67,-0.9c7.584,8.175 14.756,14.516 21.317,18.845a37.636,37.636 0 0 0 20.993,6.525a32.277,32.277 0 0 0 5.471,-0.4a21.068,21.068 0 0 0 5.958,-2.391a16.35,16.35 0 0 0 6.16,-6.241a17.577,17.577 0 0 0 2.513,-9.038a22.148,22.148 0 0 0 -1.58,-7.052a13.609,13.609 0 0 0 -6.4,-7.133a73.054,73.054 0 0 0 -13.981,-5.593l-12.078,-3.486a102.427,102.427 0 0 1 -14.995,-5.633a39.89,39.89 0 0 1 -9.807,-6.363a36.034,36.034 0 0 1 -5.684,-6.565a17.2,17.2 0 0 1 -2.624,-6.241a57.667,57.667 0 0 1 -1.094,-9.564a42.542,42.542 0 0 1 0.549,-6.9l-18.329,21.054l22.941,37.076l-15.58,20.934l-24.139,-38.963l-9.4,11.348l0,36.15l11.264,0l0,9.808l-48.146,0l0,-9.538c-0.584,0.275 -1.181,0.542 -1.774,0.8a47.082,47.082 0 0 1 -18.481,4.088l-3.324,0l-8.834,-1.216c-2.366,-0.269 -5.407,-1.687 -9.038,-4.215a106.12,106.12 0 0 1 -12.847,-11.019l17.1,-17.589c2.309,2.631 4.872,5.358 7.619,8.105a75.124,75.124 0 0 0 6.808,6.079a24.293,24.293 0 0 0 6.4,3.729a19.892,19.892 0 0 0 6.889,1.135l2.026,0a14.031,14.031 0 0 0 6.12,-2.31a13.5,13.5 0 0 0 4.336,-5.309a18.171,18.171 0 0 0 1.3,-3.444a14.963,14.963 0 0 0 0.487,-3.85a22.268,22.268 0 0 0 -3.243,-11.47a33.061,33.061 0 0 0 -8.957,-9.686a19.834,19.834 0 0 0 -11.866,-4.218l-4.945,0.162l-4.377,1.621l-5.107,-7.457l28.529,-28.37l-6,0c-3.389,0 -6.47,0.055 -9.159,0.162s-5.282,0.217 -7.7,0.324c-3.765,0 -7.529,2.455 -11.185,7.3l-8.268,-3l10.943,-29.018l8.51,3.323l-0.73,1.784l39.881,0l0.316,0.553l0,19.629l2.035,-2.026l2.756,-2.512l2.675,-2.027l-7.465,-13.064l0,-0.686l-11.43,0l0,-9.97l48.146,0l0,9.969l-11.266,0l0,48.631l41.014,-48.633l-12.645,0l0,-9.967l35.62,0a46.665,46.665 0 0 0 -8.078,5.5a31.889,31.889 0 0 0 -9.119,12.2a37.2,37.2 0 0 0 -2.288,8.1l13.775,-15.826l9.077,0l0,-9.974l-3.367,0a46.862,46.862 0 0 1 5.9,-2.649a61.384,61.384 0 0 1 7.619,-1.985a43.975,43.975 0 0 1 8.105,-0.689a55.065,55.065 0 0 1 15.076,1.945a60.576,60.576 0 0 1 10.375,3.769a23.075,23.075 0 0 1 4.945,3.121l5.107,-6.971l8.186,6l-15.482,22.046c-10.218,-11.24 -21.208,-16.94 -32.665,-16.94l-2.837,0.162l-3.81,0.324c-1.452,0 -3.307,0.791 -5.512,2.351a14.049,14.049 0 0 0 -4.985,4.9a12.238,12.238 0 0 0 -1.823,6.362a12.678,12.678 0 0 0 1.215,5.837a15.976,15.976 0 0 0 7.133,8.591a49.658,49.658 0 0 0 5.593,2.675c1.378,0.511 3.627,1.336 7.294,2.675l14.347,4.458a66.262,66.262 0 0 1 19.7,9.484a38.536,38.536 0 0 1 6.636,5.481a16.5,16.5 0 0 1 3.536,5.421a46.169,46.169 0 0 1 2.471,8.713l0.487,5.269a37.6,37.6 0 0 1 -2.077,12.27a46.64,46.64 0 0 1 -6.231,11.844a51.94,51.94 0 0 1 -9.007,9.838a39.237,39.237 0 0 1 -10.405,6.251a62.254,62.254 0 0 1 -11.287,3.344a61.207,61.207 0 0 1 -11.652,1.113zm-116.257,-11.617l10.865,0l0,-7.313a43.947,43.947 0 0 1 -10.865,7.313zm10.865,-83.111l-16.446,16.373a53.6,53.6 0 0 1 16.446,6.406l0,53.02c0.81,-0.755 1.59,-1.55 2.318,-2.363c3.953,-4.41 6.639,-8.691 7.984,-12.726a34.575,34.575 0 0 0 2.351,-12.968c0,-2.315 -0.709,-6.12 -2.108,-11.308a22.233,22.233 0 0 0 -9.077,-12.685c-0.474,-0.331 -0.968,-0.657 -1.468,-0.971l0,-22.778zm93.021,92.918l-38.229,0l0,-9.807l9.483,0l-5.178,-8.358a92.134,92.134 0 0 0 23.52,14.5a81.372,81.372 0 0 0 10.4,3.659l0.004,0.006z" id="Exclusion_1"/>
  <text stroke="#000" xml:space="preserve" text-anchor="start" font-family="sans-serif" font-size="62" id="svg_1" y="84.17188" x="240.5" stroke-width="0" fill="#4a5fc1">PetShop</text>
 </g>
</svg>