<svg xmlns="http://www.w3.org/2000/svg" width="221.781" height="130.336" viewBox="0 0 221.781 130.336">
  <path id="Exclusion_1" data-name="Exclusion 1" d="M137.9,335.81A47.731,47.731,0,0,1,125.536,334h9.1v-9.807h-9.321l-18.235-29.47.67-.9c7.584,8.175,14.756,14.516,21.317,18.845a37.636,37.636,0,0,0,20.993,6.525,32.277,32.277,0,0,0,5.471-.4,21.068,21.068,0,0,0,5.958-2.391,16.35,16.35,0,0,0,6.16-6.241,17.577,17.577,0,0,0,2.513-9.038,22.148,22.148,0,0,0-1.58-7.052,13.609,13.609,0,0,0-6.4-7.133,73.054,73.054,0,0,0-13.981-5.593l-12.078-3.486a102.427,102.427,0,0,1-14.995-5.633,39.89,39.89,0,0,1-9.807-6.363,36.034,36.034,0,0,1-5.684-6.565,17.2,17.2,0,0,1-2.624-6.241,57.667,57.667,0,0,1-1.094-9.564,42.542,42.542,0,0,1,.549-6.9L84.139,257.647l22.941,37.076L91.5,315.657,67.361,276.694l-9.4,11.348v36.15H69.225V334H21.079v-9.538c-.584.275-1.181.542-1.774.8A47.082,47.082,0,0,1,.824,329.35H-2.5l-8.834-1.216c-2.366-.269-5.407-1.687-9.038-4.215A106.12,106.12,0,0,1-33.219,312.9l17.1-17.589c2.309,2.631,4.872,5.358,7.619,8.105a75.124,75.124,0,0,0,6.808,6.079,24.293,24.293,0,0,0,6.4,3.729,19.892,19.892,0,0,0,6.889,1.135h2.026a14.031,14.031,0,0,0,6.12-2.31,13.5,13.5,0,0,0,4.336-5.309,18.171,18.171,0,0,0,1.3-3.444,14.963,14.963,0,0,0,.487-3.85,22.268,22.268,0,0,0-3.243-11.47,33.061,33.061,0,0,0-8.957-9.686A19.834,19.834,0,0,0,1.8,274.072l-4.945.162-4.377,1.621-5.107-7.457L15.9,240.028h-6c-3.389,0-6.47.055-9.159.162s-5.282.217-7.7.324c-3.765,0-7.529,2.455-11.185,7.3l-8.268-3,10.943-29.018,8.51,3.323-.73,1.784H32.192l.316.553v19.629l2.035-2.026,2.756-2.512,2.675-2.027-7.465-13.064v-.686H21.079V210.8H69.225v9.969H57.959V269.4l41.014-48.633H86.328V210.8h35.62a46.665,46.665,0,0,0-8.078,5.5,31.889,31.889,0,0,0-9.119,12.2,37.2,37.2,0,0,0-2.288,8.1l13.775-15.826h9.077V210.8h-3.367a46.862,46.862,0,0,1,5.9-2.649,61.384,61.384,0,0,1,7.619-1.985,43.975,43.975,0,0,1,8.105-.689,55.065,55.065,0,0,1,15.076,1.945,60.576,60.576,0,0,1,10.375,3.769,23.075,23.075,0,0,1,4.945,3.121l5.107-6.971,8.186,6-15.482,22.046c-10.218-11.24-21.208-16.94-32.665-16.94l-2.837.162-3.81.324c-1.452,0-3.307.791-5.512,2.351a14.049,14.049,0,0,0-4.985,4.9,12.238,12.238,0,0,0-1.823,6.362,12.678,12.678,0,0,0,1.215,5.837,15.976,15.976,0,0,0,7.133,8.591,49.658,49.658,0,0,0,5.593,2.675c1.378.511,3.627,1.336,7.294,2.675l14.347,4.458a66.262,66.262,0,0,1,19.7,9.484,38.536,38.536,0,0,1,6.636,5.481,16.5,16.5,0,0,1,3.536,5.421,46.169,46.169,0,0,1,2.471,8.713l.487,5.269a37.6,37.6,0,0,1-2.077,12.27,46.64,46.64,0,0,1-6.231,11.844,51.94,51.94,0,0,1-9.007,9.838,39.237,39.237,0,0,1-10.405,6.251,62.254,62.254,0,0,1-11.287,3.344A61.207,61.207,0,0,1,137.9,335.81ZM21.643,324.193H32.508V316.88A43.947,43.947,0,0,1,21.643,324.193Zm10.865-83.111L16.062,257.455a53.6,53.6,0,0,1,16.446,6.406v53.02c.81-.755,1.59-1.55,2.318-2.363,3.953-4.41,6.639-8.691,7.984-12.726a34.575,34.575,0,0,0,2.351-12.968c0-2.315-.709-6.12-2.108-11.308a22.233,22.233,0,0,0-9.077-12.685c-.474-.331-.968-.657-1.468-.971ZM125.529,334H87.3v-9.807h9.483l-5.178-8.358a92.134,92.134,0,0,0,23.52,14.5,81.372,81.372,0,0,0,10.4,3.659Z" transform="translate(33.219 -205.474)" fill="#4a5fc1"/>
</svg>
